<svg id="Layer_1" data-name="Layer 1" xmlns="http://www.w3.org/2000/svg" xmlns:xlink="http://www.w3.org/1999/xlink" viewBox="0 0 2149.1 1741.1"><defs><style>.cls-1{fill:#f99746;}.cls-2{fill:#ed7d2b;}.cls-3{fill:#dfebfd;}.cls-4{fill:#efa26f;}.cls-5{fill:#ffb27d;}.cls-6{fill:#ffd3b6;}.cls-7{fill:#ffc197;}.cls-8{fill:#f3f8ff;}.cls-9{fill:#e1eefb;}.cls-10{fill:#818284;}.cls-11{fill:#525252;}.cls-12{fill:#f1fcff;}.cls-12,.cls-29{opacity:0.1;}.cls-12,.cls-18,.cls-21,.cls-23,.cls-27,.cls-29,.cls-30,.cls-31,.cls-40,.cls-43,.cls-55,.cls-60,.cls-61,.cls-62{isolation:isolate;}.cls-13{fill:none;}.cls-14{fill:#e6f6ff;}.cls-15,.cls-21,.cls-23,.cls-61{fill:#fff;}.cls-16{fill:#07877b;}.cls-17{fill:#83898d;}.cls-18{font-size:22.99px;fill:#babcbe;letter-spacing:-0.04em;}.cls-18,.cls-21,.cls-23,.cls-27,.cls-30,.cls-40{font-family:Roboto-Regular, Roboto;}.cls-19{letter-spacing:0em;}.cls-20{fill:#005e52;}.cls-21{font-size:24.08px;}.cls-22{letter-spacing:-0.01em;}.cls-23{font-size:17.52px;}.cls-24{letter-spacing:-0.01em;}.cls-25{letter-spacing:-0.01em;}.cls-26{fill:#004b3f;}.cls-27{font-size:18.76px;}.cls-28{letter-spacing:-0.01em;}.cls-29{fill:#231f20;}.cls-30,.cls-40{font-size:15.85px;}.cls-30{fill:#9a9a9a;}.cls-31{font-size:18.99px;font-family:Roboto-Light, Roboto;font-weight:300;}.cls-32{letter-spacing:-0.01em;}.cls-33{letter-spacing:-0.05em;}.cls-34{letter-spacing:0em;}.cls-35{letter-spacing:-0.01em;}.cls-36{letter-spacing:-0.04em;}.cls-37{letter-spacing:-0.05em;}.cls-38{letter-spacing:0em;}.cls-39{fill:#c2ffc2;}.cls-40{fill:#7eaf8d;}.cls-41{fill:#0faee5;}.cls-42{letter-spacing:-0.01em;}.cls-44{letter-spacing:-0.01em;}.cls-45{letter-spacing:0em;}.cls-46{letter-spacing:-0.01em;}.cls-47{letter-spacing:-0.02em;}.cls-48{letter-spacing:-0.02em;}.cls-49{letter-spacing:-0.02em;}.cls-50{letter-spacing:-0.01em;}.cls-51{letter-spacing:-0.04em;}.cls-52{letter-spacing:-0.02em;}.cls-53{letter-spacing:0.02em;}.cls-54{fill:url(#linear-gradient);}.cls-55{font-size:46px;font-family:Centaur;}.cls-56{letter-spacing:-0.01em;}.cls-57{letter-spacing:-0.03em;}.cls-58{opacity:0.7;}.cls-59{fill:#e6e6e6;}.cls-60,.cls-63{fill:#f0f0f0;}.cls-60,.cls-62,.cls-64{opacity:0.8;}.cls-61{opacity:0.3;}.cls-62{fill:url(#linear-gradient-2);}</style><linearGradient id="linear-gradient" x1="1171.48" y1="447.21" x2="1610.36" y2="447.21" gradientTransform="matrix(1.19, 0, 0, -0.9, 238.7, 965.84)" gradientUnits="userSpaceOnUse"><stop offset="0" stop-color="#bed0d9"/><stop offset="1" stop-color="#c6d9e3"/></linearGradient><linearGradient id="linear-gradient-2" x1="1500.86" y1="1034.89" x2="1500.86" y2="1076.04" gradientTransform="matrix(0.74, 0.67, 0.67, -0.74, -206.79, 210.56)" gradientUnits="userSpaceOnUse"><stop offset="0.35" stop-color="#fff"/><stop offset="1" stop-color="#f0f0f0"/></linearGradient></defs><g id="hand4"><path class="cls-1" d="M691.5,1421.3s-3.3,155.4-12.7,364.7H68.2c139.6-284.2,260.9-523.3,260.9-523.3S676.8,1272.8,691.5,1421.3Z" transform="translate(322.9 -45)"/><path class="cls-2" d="M269.7,1380.5S389,1489.6,469.5,1531.7l60.9-41.2v60.8s119.8,20.2,157.5,0V1385.4l-336.4-161Z" transform="translate(322.9 -45)"/><path class="cls-3" d="M519,923.3S441,1091.8,409,1076,510.1,894.2,510.1,894.2,412.9,732.1,352.1,700c0,0-14.8,204.8-41.7,182s-21.8-236.7-21.8-236.7-130-124-214.6-55.5-76.3,136-58,155.8S177.1,856.5,160.8,871.7,28.6,852.2-13.3,801.4c0,0-41,177.3,41.2,221s139,13.7,189.4,41.6,76.4,63.1,43.7,59.7-107.7-64.8-168.9-58.8-106.3,4.8-44.8,65.9,196.6,136.8,260.3,101.1c2.8-1.6,5.4-3,8-4.5a38.56,38.56,0,0,1-8,4.5c7.9,16.1,2.5,64.2-3.2,100.2-1.3,5.9-2.8,14.3-4.4,25.9h0c-.9,5.1-1.7,9.3-2.3,12.2-18.2,77-106.7,172.5-106.7,172.5l12.5,14c109.6-82.8,112.3-208.2,112.3-208.2,10.7-93.8,55.5-152.3,55.5-152.3s191,16.8,198.7-125.5C570,1070.5,562.7,975.3,519,923.3Z" transform="translate(322.9 -45)"/><path class="cls-4" d="M1079.1,849.2s-93.2,178-187.9,300.9c-37.7,48.9-75.6,89.1-107.9,105.8-31.7,16.4-58.5,41.9-80.6,70.1-57.4,73.1-84,164.6-84,164.6L376.6,1140.9s8.3-341.8,37.3-399c42.4-83.3,62.8-251.7,79.1-285.2,12.1-24.9,46.5-153.3,49.9-162.7,1.4-4.1,12.9-10.3,27.8-10.3,12,0,32.3,11,37.4,33.7C634,432,602.8,507.6,603.2,511c9.1,88.1-18.3,153.4.9,170.8.7.6,2,.3,3.9-.8,33.4-20.5,240.5-308.8,266-315C901,359.4,1079.1,849.2,1079.1,849.2Z" transform="translate(322.9 -45)"/><path class="cls-5" d="M1290.7,246.8l-75,104.9-73.6,103c-4.5,5.2-9.7,7-15.3,6.4-17.7-1.6-39.5-25.9-56.5-39.4l-1.7-1.4c-22.4-17.7-25.6-49.8-7-71.2L1174,219.3h0l33.3-38.5c18.6-21.4,52.1-24.5,74.5-6.7l1.7,1.4C1306.1,193.3,1309.3,225.4,1290.7,246.8Z" transform="translate(322.9 -45)"/><path class="cls-5" d="M1253.4,643l-11.2,4.1L1167,674.4a53.39,53.39,0,0,1-5.3,1.6c-24.9,6.2-51.4-6.5-60.7-29.9l-1.1-2.8c-10-25.1,3.3-53.5,29.7-63.1l70.1-25.4,5.1-1.9,11.2-4.1c26.3-9.6,56,3.2,66,28.3l1.1,2.8C1293.1,605.1,1279.7,633.5,1253.4,643Z" transform="translate(322.9 -45)"/><path class="cls-6" d="M1192.4,644.7c-12.5,4.5-35.3,12.6-47.4,14.3-3.4.5-9.8-1.3-15.7-7.5a45.79,45.79,0,0,1-9.5-16.3,48,48,0,0,1-2.6-10.4,43,43,0,0,1,.4-12.4,12.39,12.39,0,0,1,7.2-8.8h.1c12.9-5.9,30.3-13.1,45.6-17.1,10.6-2.8,21.2,1.7,24.6,10.5l1.6,4.1,8.1,21.1C1208,631,1202.6,641,1192.4,644.7Z" transform="translate(322.9 -45)"/><path class="cls-7" d="M1192.4,644.7c-12.5,4.5-35.3,12.6-47.4,14.3-3.4.5-9.8-1.3-15.7-7.5q-.9-2.1-1.8-4.5a48,48,0,0,1-2.6-10.4,43,43,0,0,1,.4-12.4,12.39,12.39,0,0,1,7.2-8.8h.1c12.9-5.9,30.3-13.1,45.6-17.1a22.49,22.49,0,0,1,18.5,2.8l8.1,21.1C1208,631,1202.6,641,1192.4,644.7Z" transform="translate(322.9 -45)"/><path class="cls-5" d="M1219.3,743.9l-58,15.1c-17.6,4.6-35.9-5.4-40.7-22.3l-1.8-6.3c-4.8-16.8,5.7-34.3,23.3-38.9l58-15.1c17.6-4.6,35.9,5.4,40.7,22.3l1.8,6.3C1247.4,721.8,1236.9,739.3,1219.3,743.9Z" transform="translate(322.9 -45)"/><path class="cls-6" d="M1188,741.2c-10.6,2.7-29.9,7.5-40,8-3.7.2-11-2.8-15.8-12a35.27,35.27,0,0,1-3-7.8,38,38,0,0,1-1.3-8.1,30.7,30.7,0,0,1,1.3-9.5,9.92,9.92,0,0,1,6.6-6.3h.1c11-3.7,25.9-8.2,38.7-10.3,8.9-1.5,17.3,2.6,19.3,9.6l1.5,5,4.5,15C1201.9,731.6,1196.7,739,1188,741.2Z" transform="translate(322.9 -45)"/><path class="cls-7" d="M1188,741.2c-10.6,2.7-29.9,7.5-40,8-3.7.2-11-2.8-15.8-12a40,40,0,0,1-1.2-7.6,30.7,30.7,0,0,1,1.3-9.5,9.92,9.92,0,0,1,6.6-6.3h.1c11-3.7,25.9-8.2,38.7-10.3,7.3-1.2,14.4,1.4,17.8,6.2l4.5,15C1201.9,731.6,1196.7,739,1188,741.2Z" transform="translate(322.9 -45)"/><path class="cls-8" d="M376.7,1128.6s-75.8,108.2-151.1,223.9c0,0,158.7,104.2,244.7,134.8l112.9-123.4-16.1,148.6s99.9,34.8,146.2,25.7c0,0-2.9-134.8-2.9-223.1C710.4,1315.1,435.8,1241.6,376.7,1128.6Z" transform="translate(322.9 -45)"/><path class="cls-5" d="M1251.6,536.9c-.4.1-.8.3-1.3.4l-76,18.6c-33.4,8.2-68-9.1-76.8-38.4l-4.5-15c-8.5-28.1,9.7-57.5,40.8-67.1l25.1-6.2,50.9-12.5c33.4-8.2,68,9.1,76.8,38.4l4.5,15C1299.5,498,1281.9,527,1251.6,536.9Z" transform="translate(322.9 -45)"/><path class="cls-6" d="M1216.8,516.7l-36.9,15.9c-.1,0-.1,0-.2.1a35.83,35.83,0,0,1-4.5.9,12.25,12.25,0,0,1-1.9.2h-.8c-4.1-.1-6.9-4.3-5.1-7.9a33.86,33.86,0,0,0,2.1-23.9l-.9-3.1v-.1l-2.9-10a37.48,37.48,0,0,0-13.4-19.5l-2.3-1.7a10,10,0,0,1,3.1-18c.1,0,.2,0,.2-.1l40.5-5.9c10-2.6,19.7,4.8,22.4,14.3l3.3,11.4,6.9,24.3C1229.1,503.3,1226.8,514.1,1216.8,516.7Z" transform="translate(322.9 -45)"/><path class="cls-7" d="M1216.8,516.7l-36.9,15.9c-.1,0-.1,0-.2.1-.9.2-3.6.6-7.1,1.1-4.1-.1-6.9-4.3-5.1-7.9a33.86,33.86,0,0,0,2.1-23.9l-.9-3.1v-.1l-2.9-10a37.48,37.48,0,0,0-13.4-19.5,10.08,10.08,0,0,1,5.8-3.9c.1,0,.2,0,.2-.1l40.5-5.9c8.4-2.2,16.6,2.7,20.6,10l6.9,24.3C1229.1,503.3,1226.8,514.1,1216.8,516.7Z" transform="translate(322.9 -45)"/><path class="cls-9" d="M157.2,1427.9s-28.3-73.8-75.2-105.5c0,0-21.8,150.2-50.8,144.5s37-165.6,37-165.6-115.3-107.2-171-119.5c0,0,36.8,165.3,10.1,153S-166,1152.3-166,1152.3s-97.3-51.6-156.9-20.5V1305c45.7,17.3,116.2,42.5,109.4,53.9s-62.4,13.1-109.4.9v120.7c10.7,13,23.8,22.7,40,26.3,75.4,16.8,113.2-19.2,159.7-8s75.4,33.4,48.7,37.8-100.5-28-147.5-10-83,26.7-19.8,61.8,187.9,65.8,229.8,23.8h0c1.8-1.8,3.6-3.6,5.2-5.3h0a26.05,26.05,0,0,1-5.3,5.3c10.1,11,17.2,50.3,21.2,80,.3,4.9,1.2,11.8,2.6,21.3.5,4.4.9,8,1.1,10.4,1.1,19.2-2.3,41-7.6,62.2H25.3c6.4-47.7-3.4-83.3-3.5-83.5h0c-13.8-76.5,7.9-132.4,7.9-132.4h0C30.1,1570,184.7,1542,157.2,1427.9Z" transform="translate(322.9 -45)"/><path class="cls-3" d="M1450.6,1295.9c-26.5-93.6-191.9-64.3-191.9-64.3s-112.3,163.7-144.9,167.6,67.4-157.9,67.4-157.9c-63.3-5.8-224.5,68.2-224.5,68.2s10.2,191-22.5,187.1,0-169.6,0-169.6c-61.2,17.5-118.4,85.8-118.4,85.8-71.4,111.1,81.7,193,81.7,193s2,66.3-40.8,142.3h0s-9.7,14-19.5,37.9h16.7c1.4-4.3,2.9-8.4,4.5-12.4v-.1c0-.1,0-.1.1-.2,1.1-2.5,2.8-6,4.8-10.2h0c5.1-9.5,8.5-16.6,10.7-21.7h0c15.3-29.9,37.3-68.9,52-77.1a34,34,0,0,1-3.6-7.3c1.1,2.3,2.3,4.8,3.6,7.3,28.6,58.5,171.5,68.2,251.1,52.6s44.9-37,2-71.8-132.7-25.6-159.2-39.3,12.2-27.3,65.3-23.4,79.6,54.6,165.3,62.4,151.1-146.2,151.1-146.2c-59.2,17.5-165.3-13.6-169.4-33.1s153.1-17.5,177.6-23.4S1477.2,1389.5,1450.6,1295.9Z" transform="translate(322.9 -45)"/><path class="cls-10" d="M1085.3,1039.3h-485a28.17,28.17,0,0,1-28.2-28.2V73.2A28.17,28.17,0,0,1,600.3,45h485a28.17,28.17,0,0,1,28.2,28.2v937.9A28.17,28.17,0,0,1,1085.3,1039.3Z" transform="translate(322.9 -45)"/><path d="M1082.4,1031.7h-478a28.17,28.17,0,0,1-28.2-28.2V78.6a28.17,28.17,0,0,1,28.2-28.2h478a28.17,28.17,0,0,1,28.2,28.2v924.9A28.3,28.3,0,0,1,1082.4,1031.7Z" transform="translate(322.9 -45)"/><path class="cls-11" d="M894.5,97.9H787.9a3.51,3.51,0,0,1-3.7-3.4h0a3.57,3.57,0,0,1,3.7-3.4H894.5a3.51,3.51,0,0,1,3.7,3.4h0A3.57,3.57,0,0,1,894.5,97.9Z" transform="translate(322.9 -45)"/><path class="cls-12" d="M898,47.9,581.9,960.8l-7-842.1c-.3-38,32.7-69,73.9-69.5C744.4,48,898.1,46.3,898,47.9Z" transform="translate(322.9 -45)"/></g><rect class="cls-13" x="1054.8" y="189.1" width="188" height="14.9"/><g id="whatsapp"><rect class="cls-14" x="918" y="76.1" width="495.4" height="847.9"/><path class="cls-15" d="M1004.6,959.2h-395a8.81,8.81,0,0,1-8.8-8.8V908a8.81,8.81,0,0,1,8.8-8.8h395a8.81,8.81,0,0,1,8.8,8.8v42.3A9,9,0,0,1,1004.6,959.2Z" transform="translate(322.9 -45)"/><ellipse class="cls-16" cx="1375.1" cy="884.2" rx="30.9" ry="29.9"/><path class="cls-17" d="M926.9,941.1a8.27,8.27,0,0,1-5.7-2.3l-13.8-13.3a5.85,5.85,0,0,1,0-8.3,6.1,6.1,0,0,1,8.5,0L927,928a3.87,3.87,0,0,1,0,5.6,4.3,4.3,0,0,1-5.8,0l-8.2-7.9a1.15,1.15,0,0,1,0-1.7,1.27,1.27,0,0,1,1.8,0l8.2,7.9a1.56,1.56,0,0,0,2.2-2.2l-11-10.7a3.57,3.57,0,0,0-4.9,0,3.27,3.27,0,0,0,0,4.8l13.8,13.3a5.62,5.62,0,0,0,7.8,0,5.31,5.31,0,0,0,0-7.6l-10.2-9.9a1.15,1.15,0,0,1,0-1.7,1.27,1.27,0,0,1,1.8,0l10.2,9.9a7.74,7.74,0,0,1,2.4,5.5,7.35,7.35,0,0,1-2.4,5.5A8.9,8.9,0,0,1,926.9,941.1Z" transform="translate(322.9 -45)"/><path class="cls-15" d="M1063.4,928.6a1.55,1.55,0,0,0-1.6-1.7,1.61,1.61,0,0,0-1.8,1.5,6.83,6.83,0,0,1-7.2,6.3,7.37,7.37,0,0,1-7.7-6.4,1.57,1.57,0,0,0-1.9-1.4,1.67,1.67,0,0,0-1.5,1.8,10.68,10.68,0,0,0,9.3,9v4.4a1.7,1.7,0,0,0,3.4,0v-4.4A9.89,9.89,0,0,0,1063.4,928.6Z" transform="translate(322.9 -45)"/><path class="cls-15" d="M1055.8,931.6h-6.3a1.22,1.22,0,0,1-1.2-1.2V916.7a1.22,1.22,0,0,1,1.2-1.2h6.3a1.22,1.22,0,0,1,1.2,1.2v13.7A1.16,1.16,0,0,1,1055.8,931.6Z" transform="translate(322.9 -45)"/><path class="cls-17" d="M630.5,943.2a13.81,13.81,0,1,1,14.3-13.8A14.07,14.07,0,0,1,630.5,943.2Zm0-25.2a11.4,11.4,0,1,0,11.7,11.4A11.53,11.53,0,0,0,630.5,918Z" transform="translate(322.9 -45)"/><path class="cls-17" d="M628.4,925.9c0,1.3-.8,2.4-1.8,2.4s-1.8-1.1-1.8-2.4.8-2.4,1.8-2.4A2.25,2.25,0,0,1,628.4,925.9Z" transform="translate(322.9 -45)"/><path class="cls-17" d="M636.2,925.9c0,1.3-.8,2.4-1.8,2.4s-1.8-1.1-1.8-2.4.8-2.4,1.8-2.4A2.34,2.34,0,0,1,636.2,925.9Z" transform="translate(322.9 -45)"/><path class="cls-17" d="M622.9,931.7a7.85,7.85,0,0,0,7.6,5.3,8,8,0,0,0,7.6-5.3Z" transform="translate(322.9 -45)"/><text class="cls-18" transform="translate(984.58 893.15) scale(1.03 1)">T<tspan class="cls-19" x="12.91" y="0">ype a message</tspan></text><path class="cls-17" d="M983.8,915.3H971.2a7.6,7.6,0,0,0-7.7,7.5v11.5a7.66,7.66,0,0,0,7.7,7.5h12.6a7.6,7.6,0,0,0,7.7-7.5V922.8A7.54,7.54,0,0,0,983.8,915.3Zm-6.3,20.9a7.61,7.61,0,1,1,7.9-7.6A7.79,7.79,0,0,1,977.5,936.2Z" transform="translate(322.9 -45)"/><ellipse class="cls-17" cx="1300.4" cy="883.5" rx="5.2" ry="5"/><rect class="cls-20" x="918" y="76.1" width="495.4" height="109.2"/><polygon class="cls-15" points="950.5 145.6 934.2 145.6 941.3 137.7 939.2 135.9 929.2 147 939.2 157.3 941.3 155.4 934.4 148.3 950.5 148.3 950.5 145.6"/><path class="cls-15" d="M938.9,183.1H925.5a3.46,3.46,0,0,0-3.5,3.4V197a3.46,3.46,0,0,0,3.5,3.4h13.4a3.46,3.46,0,0,0,3.5-3.4V186.5A3.46,3.46,0,0,0,938.9,183.1Z" transform="translate(322.9 -45)"/><path class="cls-15" d="M948.9,185.9l-4.4,2.9a1.23,1.23,0,0,0-.5,1v3.8a1.23,1.23,0,0,0,.5,1l4.4,2.9a1.14,1.14,0,0,0,1.8-.9V187A1.19,1.19,0,0,0,948.9,185.9Z" transform="translate(322.9 -45)"/><path class="cls-15" d="M992.1,179.7A2,2,0,0,0,990,182c.5,3.6,2.1,10.5,7.1,14.8,5.9,5.1,11.2,6.6,15.5,7a2.19,2.19,0,0,0,2.4-2.1v-4a.9.9,0,0,0-.9-.9c-.8,0-1.9,0-2.9-.1a7.82,7.82,0,0,1-2.8-1.1.93.93,0,0,0-1.2.2l-2.9,3a21.62,21.62,0,0,1-5.5-3.8,32,32,0,0,1-3.8-5.1l3.3-2.8a1,1,0,0,0,.3-1.2,9.56,9.56,0,0,1-.8-2.7c-.2-.9-.2-1.9-.3-2.6a1,1,0,0,0-1.1-1h-4.3Z" transform="translate(322.9 -45)"/><path class="cls-15" d="M1063.6,183.7a3,3,0,1,1-3-2.9A2.81,2.81,0,0,1,1063.6,183.7Z" transform="translate(322.9 -45)"/><path class="cls-15" d="M1063.6,191.7a3,3,0,1,1-3-2.9A2.93,2.93,0,0,1,1063.6,191.7Z" transform="translate(322.9 -45)"/><path class="cls-15" d="M1063.6,199.6a3,3,0,1,1-3-2.9A2.93,2.93,0,0,1,1063.6,199.6Z" transform="translate(322.9 -45)"/><text class="cls-21" transform="translate(1021.53 142.28) scale(1.03 1)">Ragh<tspan class="cls-22" x="54.71" y="0">a</tspan><tspan x="67.63" y="0">v Siddique</tspan></text><text class="cls-23" transform="translate(1015.2 168.62) scale(1.03 1)"><tspan xml:space="preserve"> (oops au</tspan><tspan class="cls-24" x="72.68" y="0">t</tspan><tspan x="78.23" y="0">ocor</tspan><tspan class="cls-25" x="113.31" y="0">r</tspan><tspan x="119.07" y="0">ect)</tspan></text><rect class="cls-26" x="918" y="76.1" width="495.4" height="21.2"/><ellipse class="cls-13" cx="980.7" cy="146.9" rx="24.6" ry="23.8"/><text class="cls-27" transform="translate(959.94 159.69) scale(1.01 1)">Lo<tspan class="cls-28" x="20.8" y="0">r</tspan><tspan x="26.97" y="0">e</tspan></text><path class="cls-15" d="M666.3,183.4a8.51,8.51,0,1,1-8.5-8.2A8.37,8.37,0,0,1,666.3,183.4Z" transform="translate(322.9 -45)"/><path class="cls-15" d="M657.8,215.8a24.91,24.91,0,0,0,19.2-8.9,22,22,0,0,0-38.4,0A25.06,25.06,0,0,0,657.8,215.8Z" transform="translate(322.9 -45)"/></g><g id="text4_1"><path class="cls-29" d="M607.2,274.4h11.3L943,274a10.27,10.27,0,0,1,10.5,10v27.8a10.27,10.27,0,0,1-10.5,10l-314,.4a10.27,10.27,0,0,1-10.5-10V293L606,276.7A1.41,1.41,0,0,1,607.2,274.4Z" transform="translate(322.9 -45)"/><path class="cls-15" d="M607.2,272.9h11.3l324.5-.4a10.27,10.27,0,0,1,10.5,10v27.8a10.27,10.27,0,0,1-10.5,10l-314,.4a10.27,10.27,0,0,1-10.5-10V291.5L606,275.2A1.41,1.41,0,0,1,607.2,272.9Z" transform="translate(322.9 -45)"/><text class="cls-30" transform="matrix(1.05, 0, 0, 1, 1198.81, 265.94)">5:18 PM</text><rect class="cls-13" x="959.7" y="242.4" width="306.3" height="23.5"/><text class="cls-31" transform="translate(959.68 256.61) scale(1.05 1)">H<tspan class="cls-32" x="13.43" y="0">e</tspan><tspan class="cls-33" x="23.12" y="0">y</tspan><tspan class="cls-34" x="31.15" y="0">, Raghib Siddique he</tspan><tspan class="cls-35" x="198.51" y="0">r</tspan><tspan x="204.73" y="0">e.</tspan></text></g><g id="text4_2"><path class="cls-29" d="M607.2,338.1h11.3l324.5-.4c5.8,0,10.5,5.8,10.5,12.9l.1,35.9c0,7.1-4.7,12.9-10.5,12.9l-314,.4c-5.8,0-10.5-5.8-10.5-12.9V362.1L606,341C605.3,339.8,606,338.1,607.2,338.1Z" transform="translate(322.9 -45)"/><path class="cls-15" d="M607.2,336.1h11.3l324.5-.4c5.8,0,10.5,5.8,10.5,12.9v35.9c0,7.1-4.7,12.9-10.5,12.9l-314,.4c-5.8,0-10.5-5.8-10.5-12.9V360.1l-12.5-21C605.3,337.8,606,336.1,607.2,336.1Z" transform="translate(322.9 -45)"/><text class="cls-30" transform="matrix(1.05, 0, 0, 1, 1198.88, 337.02)">5:18 PM</text><rect class="cls-13" x="958.1" y="302.4" width="306.3" height="23.5"/><text class="cls-31" transform="translate(958.11 316.62) scale(1.05 1)">He<tspan class="cls-35" x="23.24" y="0">r</tspan><tspan class="cls-36" x="29.46" y="0">e</tspan><tspan class="cls-37" x="38.52" y="0">’</tspan><tspan class="cls-38" x="40.86" y="0">s the video of AK sir singing.</tspan></text></g><g id="text4_3"><path class="cls-29" d="M1057.5,466.1H807.4a6.91,6.91,0,0,1-6.9-6.9v-34a6.91,6.91,0,0,1,6.9-6.9h250.1a6.91,6.91,0,0,1,6.9,6.9v34A6.91,6.91,0,0,1,1057.5,466.1Z" transform="translate(322.9 -45)"/><path class="cls-39" d="M1057.5,465H807.4a6.91,6.91,0,0,1-6.9-6.9v-34a6.91,6.91,0,0,1,6.9-6.9h250.1a6.91,6.91,0,0,1,6.9,6.9v34A6.91,6.91,0,0,1,1057.5,465Z" transform="translate(322.9 -45)"/><text class="cls-40" transform="translate(1282.8 407.1) scale(1.05 1)">5:20 PM</text><polygon class="cls-41" points="1356.3 408.3 1350.2 402.4 1351.8 400.9 1356.2 405 1366.1 393.2 1367.9 394.6 1356.3 408.3"/><polygon class="cls-41" points="1363.6 408.3 1360.6 405.5 1362.3 403.9 1363.5 405 1373.4 393.2 1375.2 394.6 1363.6 408.3"/><rect class="cls-13" x="1134.6" y="382.3" width="182.6" height="23.9"/><text class="cls-31" transform="translate(1134.56 396.52) scale(1.05 1)">Oh cool, thanks!</text></g><g id="text4_4"><path class="cls-29" d="M1056.6,523.1H755.2a6.91,6.91,0,0,1-6.9-6.9v-34a6.91,6.91,0,0,1,6.9-6.9h301.4a6.91,6.91,0,0,1,6.9,6.9v34A6.91,6.91,0,0,1,1056.6,523.1Z" transform="translate(322.9 -45)"/><path class="cls-39" d="M1056.6,522H755.2a6.91,6.91,0,0,1-6.9-6.9v-34a6.91,6.91,0,0,1,6.9-6.9h301.4a6.91,6.91,0,0,1,6.9,6.9v34A6.91,6.91,0,0,1,1056.6,522Z" transform="translate(322.9 -45)"/><text class="cls-40" transform="translate(1281.9 464.15) scale(1.05 1)">5:20 PM</text><polygon class="cls-41" points="1355.4 465.4 1349.3 459.5 1350.9 457.9 1355.3 462.1 1365.2 450.3 1367 451.6 1355.4 465.4"/><polygon class="cls-41" points="1362.7 465.4 1359.7 462.5 1361.4 460.9 1362.6 462.1 1372.5 450.3 1374.3 451.6 1362.7 465.4"/><rect class="cls-13" x="1089.1" y="439.3" width="202.7" height="23.9"/><text class="cls-31" transform="translate(1089.12 453.58) scale(1.05 1)">Whe<tspan class="cls-35" x="37.25" y="0">r</tspan><tspan x="43.47" y="0">e do </tspan><tspan class="cls-42" x="83.7" y="0">y</tspan><tspan class="cls-34" x="92.58" y="0">ou li</tspan><tspan class="cls-32" x="126.77" y="0">v</tspan><tspan x="135.78" y="0">e tho</tspan></text></g><g id="text4_5"><path class="cls-13" d="M606.7,541.5h7.5l216.1-.3c3.9,0,7,4.5,7,10V579c0,5.5-3.1,10-7,10l-209.1.3c-3.9,0-7-4.5-7-10V560.1l-8.4-16.3C605.4,542.8,605.9,541.5,606.7,541.5Z" transform="translate(322.9 -45)"/><g class="cls-43"><text class="cls-31" transform="translate(934.8 510.45) scale(1.03 1)">Lo<tspan class="cls-44" x="20.64" y="0">r</tspan><tspan class="cls-45" x="26.85" y="0">em ipsum dolor sit </tspan></text><text class="cls-31" transform="translate(937.27 533.25) scale(1.03 1)">amet, consectetue</text></g><path class="cls-15" d="M606.7,540h7.5l216.1-.3c3.9,0,7,4.5,7,10v27.8c0,5.5-3.1,10-7,10l-209.1.3c-3.9,0-7-4.5-7-10V558.6l-8.4-16.3C605.4,541.3,605.9,540,606.7,540Z" transform="translate(322.9 -45)"/><text class="cls-30" transform="matrix(1.05, 0, 0, 1, 1078.28, 532.98)">5:22 PM</text><rect class="cls-13" x="959.7" y="509.4" width="306.3" height="23.5"/><text class="cls-31" transform="translate(959.73 523.65) scale(1.05 1)">I li<tspan class="cls-46" x="18.18" y="0">v</tspan><tspan x="27.19" y="0">e in </tspan><tspan class="cls-47" x="60.92" y="0">V</tspan><tspan class="cls-34" x="72.21" y="0">asai</tspan></text></g><g id="text4_6"><path class="cls-29" d="M1075.4,635.2H777.2c-5.2,0-9.4,4.5-9.4,10V673c0,5.5,4.2,10,9.4,10H1056c5.2,0,9.4-4.5,9.4-10V653.8l11.1-16.3A1.42,1.42,0,0,0,1075.4,635.2Z" transform="translate(322.9 -45)"/><path class="cls-39" d="M1075.4,633.7H777.2c-5.2,0-9.4,4.5-9.4,10v27.8c0,5.5,4.2,10,9.4,10H1056c5.2,0,9.4-4.5,9.4-10V652.3l11.1-16.3A1.41,1.41,0,0,0,1075.4,633.7Z" transform="translate(322.9 -45)"/><text class="cls-40" transform="translate(1282.8 623.73) scale(1.05 1)">5:23 PM</text><rect class="cls-13" x="1108.6" y="598.3" width="306.3" height="23.5"/><text class="cls-31" transform="translate(1108.62 612.52) scale(1.05 1)"><tspan class="cls-48">W</tspan><tspan class="cls-34" x="16.74" y="0">ow! I li</tspan><tspan class="cls-46" x="68.77" y="0">v</tspan><tspan x="77.78" y="0">e in Vi</tspan><tspan class="cls-49" x="127.48" y="0">r</tspan><tspan x="133.49" y="0">ar</tspan></text><polygon class="cls-41" points="1357.3 630.7 1351.1 624.9 1352.7 623.3 1357.1 627.4 1367 615.6 1368.9 617 1357.3 630.7"/><polygon class="cls-41" points="1364.6 630.7 1361.5 627.9 1363.2 626.3 1364.4 627.4 1374.3 615.6 1376.2 617 1364.6 630.7"/></g><g id="text4_7"><path class="cls-29" d="M607.2,702.5h11.3l324.5-.4c5.8,0,10.5,5.7,10.5,12.8v35.6c0,7.1-4.7,12.8-10.5,12.8l-314,.4c-5.8,0-10.5-5.7-10.5-12.8V726.3L606,705.4C605.2,704.2,605.9,702.5,607.2,702.5Z" transform="translate(322.9 -45)"/><path class="cls-15" d="M607.2,700.5h11.3l324.5-.4c5.8,0,10.5,5.7,10.5,12.8v35.6c0,7.1-4.7,12.8-10.5,12.8l-314,.4c-5.8,0-10.5-5.7-10.5-12.8V724.3L606,703.5C605.2,702.2,605.9,700.5,607.2,700.5Z" transform="translate(322.9 -45)"/><text class="cls-30" transform="matrix(1.05, 0, 0, 1, 1198.68, 705.22)">5:24 PM</text><rect class="cls-13" x="958.2" y="666.7" width="306.3" height="55"/><g class="cls-43"><text class="cls-31" transform="translate(958.18 680.95) scale(1.05 1)">Ohhh, then how come <tspan class="cls-42" x="185.4" y="0">y</tspan><tspan x="194.29" y="0">ou did</tspan><tspan class="cls-36" x="245.33" y="0">n</tspan><tspan class="cls-38" x="255.02" y="0">’t</tspan></text><text class="cls-31" transform="translate(958.18 703.75) scale(1.05 1)">go <tspan class="cls-50" x="25.78" y="0">t</tspan><tspan class="cls-34" x="31.7" y="0">o Vi</tspan><tspan class="cls-42" x="62.92" y="0">v</tspan><tspan class="cls-34" x="71.91" y="0">a college?</tspan></text></g></g><g id="text4_8"><path class="cls-29" d="M1076.2,784.7H778c-5.2,0-9.4,6.8-9.4,15.1v42c0,8.4,4.2,15.1,9.4,15.1h278.8c5.2,0,9.4-6.8,9.4-15.1v-29l11.1-24.6C1078,786.7,1077.3,784.7,1076.2,784.7Z" transform="translate(322.9 -45)"/><path class="cls-39" d="M1076.2,782.3H778c-5.2,0-9.4,6.8-9.4,15.1v42c0,8.4,4.2,15.1,9.4,15.1h278.8c5.2,0,9.4-6.8,9.4-15.1v-29l11.1-24.6C1078,784.4,1077.3,782.3,1076.2,782.3Z" transform="translate(322.9 -45)"/><text class="cls-40" transform="translate(1283.58 794.53) scale(1.05 1)">5:25 PM</text><rect class="cls-13" x="1109.4" y="746.9" width="306.3" height="46"/><g class="cls-43"><text class="cls-31" transform="translate(1109.41 761.17) scale(1.05 1)">The same <tspan class="cls-35" x="87.23" y="0">r</tspan><tspan x="93.44" y="0">eason </tspan><tspan class="cls-42" x="148.72" y="0">y</tspan><tspan x="157.6" y="0">ou did</tspan><tspan class="cls-51" x="208.64" y="0">n</tspan><tspan x="218.33" y="0">’t </tspan></text><text class="cls-31" transform="translate(1109.41 783.97) scale(1.05 1)">go <tspan class="cls-50" x="25.78" y="0">t</tspan><tspan x="31.7" y="0">o </tspan><tspan class="cls-52" x="46.95" y="0">V</tspan><tspan class="cls-34" x="58.24" y="0">a</tspan><tspan class="cls-53" x="68.41" y="0">r</tspan><tspan x="75.26" y="0">tak</tspan></text></g><polygon class="cls-41" points="1360.5 801.9 1354.3 796 1356 794.4 1360.3 798.6 1370.3 786.8 1372.1 788.1 1360.5 801.9"/><polygon class="cls-41" points="1367.8 801.9 1364.8 799 1366.4 797.5 1367.6 798.6 1377.6 786.8 1379.4 788.1 1367.8 801.9"/></g><g id="note4_1"><polygon class="cls-54" points="2141.8 674 1627.9 675.6 1632.5 446.9 2148.2 465.6 2141.8 674"/><path class="cls-15" d="M1823.1,507.3c-.9-1.4-1.1,1.1-.8-.4.3-2.6.4-2.3-.5-.9-.5,1.2-1-.5-2.1,0-.4-1.3-1.2.6-1.8-.6-.8.6-1.5.4-2.4-.9-.8.3-1.5-.2-2.2.9-.8,1.9-1-2.3-1.8-.6-1.2,1.1-2-.3-2.9.6-1.6.4-2.5-1.4-3.3-2,.7.3-3.4,2.9-2.5.9-1,1.7-2,.5-3.6.4-.6-.5-1.5.5-2.3,0a2.33,2.33,0,0,0-3,.3c-1-1.5-2.1-1.1-3.3.7-.7,1.5-1-.8-1.6.4-.5.4-1.3,2.7-1.4-1.3-1.1,1.3-1.8-1.5-2.7-.7-.8-1.4-1.8.6-2.6.7-.9.8-1.4-1.6-2.3.8-.7-.1-1.5,1.1-1.9-.7-1.1-1.2-2.4.6-3.1-.4-1.2,3.5-1.6.8-2,.8a1.4,1.4,0,0,1-.6-.9c-.1,1.5,0,0-.2.8-.1-.6-.3-1.2-.9-1-.3-.1-.5-1.5-1-1-.3.3-.6,1.7-.9,1.2-.2-.8-.6-.2-.9-.5-.4.7-.9,1.7-1.2,1.1-.4.1-.8,0-1.2-.6-.9-.6-1.7-2.8-3-1.3-1.6-.2-2.5-.8-3.3-.4-.7-.1-1.2.4-1.6-.2-.7-.2-1.2,0-3.2.7-1.2,1.9-2.2-1.5-4.3.4-2,.4-4.5-.2-7.8-1.1-1.3-.1-2.5-.2-3.5-.3,0,.1-.2.2-.5,0h-.4a15.52,15.52,0,0,0-2.3.1,5.7,5.7,0,0,1-1.3-.1c-1.6,1.2-6.3-4.9-9-4.1-1.3,0-2.9,1.9-4.4-.4-1.7-.5-3.7.4-5.8-.7-1.6-1.1-3.1,1.3-3.9.3-.9-.7-1.5-1.3-2-.9-.9-.2-.9-.4-1.1-.3-.1-.5-.5.4-1.7.3-.5-.7-1.3-1.9-2.6-.7a12.3,12.3,0,0,0-4.8-.1c-3.9-1.5-6-1.3-7-.3-.1.1-.2.2-.3.2.1.2.1.4-.2.5-.5.9-1.6-1.2-4.6-1.3-3.1.3-4.6.8-5.3.6s-.3-1,.1-.2c1.1-.8,3,.7,1.1-1-1.3-.5-2.7,0-4.3-.5a11.33,11.33,0,0,1-6.3,1.5c-1.3.1-2.6-.7-4.3-.6s-4.3-4.4-6.3-4.8c-2,.2-3.4.4-4.5,1.6-.9-.4-1.4-.5-1.9.2-.7-.1-.8-1.4-2.6,0-.9.6-2.1.4-3.9.4a7.56,7.56,0,0,0-3.2-.7,7.25,7.25,0,0,0-4.5.9c-1.7.5-3.1-.5-4.4.2-1.3-.1-2.3-.5-3.2-.3-1.7-1-2.8-.4-3.4-.5a.73.73,0,0,1-.5-.9c.2-.5.5,1,1.2-.4,1.1,0,2.4,0,2.5-.9,0-.5-.8.6-1.9.4-1.1-.7-2.7.5-4.3.8a13.14,13.14,0,0,1-4.2.4c-1.1-.6-2,1-1.9.4-.1.8-2-.1-4.6-.1-1.3.2-1.2-2.3-2.5-2.2s-2.7.6-3.6-.3c-1.5,1-2.3.3-3.8.2-.8.3-1.7,0-3,.4-1.3.2.9-1.5-1-1.9-1.9-.7-4.5.9-7.4-.3a24.93,24.93,0,0,0-4.9-.4c-1.8,0-3.8.1-5.9.1-1.6.2-3-.2-4.2-.1-1.1-1.1-2.3,0-3.1-.5-1.8-.3-2.8-1.5-3.6-.3-1.5.8-1.1,1.1-.3.3,1.5,0,4.5.8-2.2.3-1.1-.7-2-1.4-3-.6-.9-.4-1.8.9-2.4.5-2.4.7-3.9,1.3-5.1-.2a31.61,31.61,0,0,1-4.9-.3,3.09,3.09,0,0,1-4.1-.3c-1.7.8-3.7.1-6.1-.1-4.4.1-7.1-1.2-8.9-.2a7.35,7.35,0,0,1-1.5,0c.4.4.9.9.9.8,0,.4-.1.7-2.2,0-.5,0-1.1-.9-2-.6-1,1.9-2,1.2-3.2.6a13.18,13.18,0,0,1-4.4-.1c-1.6-.7-3.6.3-5.8-.3-2.2-.1-3.8-.5-5.1.4a2.2,2.2,0,0,0-1.4.1c-.1.8-.1.5-.3.2.1,0,.1-.1.2-.2h-.3c-.1-.1-.1-.2-.2-.3-.1.1-.1,0-.2,0,.1.1.2.2.2.3s-.2-.1-.3-.3c-.2,0-.3-.1-.6-.3a.1.1,0,0,1,.1-.1h-.2a6,6,0,0,0-1.3-.9c-4.7-.8-4.8.3-5.3-.7-.2-1.5-.8,0-2.1-.6-.7-.1-1.4-1.1-2.7-.4-1.2.4-2.5-2-4.4-1.1a12.45,12.45,0,0,0-5.6-.8c-1.4-.2-2.3-.9-3.1-.3a4.17,4.17,0,0,0-3.2.9c-.7,1.3-1.3-.3-2.5.5-1.1-.3-2.6.2-4.6.2-6-.6-6-.8-5.4,0,.5,1.9,1.9,1.8-1.4.4-3.4.5-3.2-2.1-3.9.1-.3.1-.6,0-1.6-.1-1-.3-2.6.5-5.3-.2-3.5-.8-4.9.8-5.6-.1a4.51,4.51,0,0,1-2.8-.4,11,11,0,0,0-4-.3c-1.8-.8-4.4.3-7.7-.7-2.8-.3-4.7-.4-6.2-.5a4.17,4.17,0,0,1-.6.2c-.4-.1-.7-.1-1-.2a5.7,5.7,0,0,0,1.3-.1c-1-.1-1.8-.1-2.2-.2-1-.5-.6.2.2.2.2.1.4.1.6.2-2.3-.3-2.4,0-2.5.1s-.6.6-4.6.7c-1.3-.4-2.6.4-3.6,0-1.2.7-2.1,0-2.9-.5-.8-1-1.7.1-2.4-.9a1.72,1.72,0,0,1-2.3-.3c-.7-.6-1.5.4-2.3-.3a3.32,3.32,0,0,1-2.4-.8c-2.7.1-2.7-.5-2.8-.4s-.4,1.6-.8.7c-.5,0-1.5.2-3.2.3a5.81,5.81,0,0,0-3.3-.3c-.7.9-1,1.1-1.1.8-.3-.2-.4.2-2.4.2a4.08,4.08,0,0,0-3.6,0c-.7-.1-1.5-1.5-2.7-.4s-2.3,0-3.9-.2c-.7-.4-1.7,1-2.5.1-.8-.6-1.9.1-2.9-.6-1.7-.6-3.8.5-5.9-.5-1.1.4,3.4,3.8,2.3,3-1.4,1.3-2.5-.2-3.9-.5-1.4-.1-2.8-.9-4.3-.4-1.5-.1-3.1-.7-4.8-.2-2-.3-4.2.4-6.4-.4-1.6.4-2.8-.8-4.1-.8-1.2-.5-2.4,0-3.5-.3-2.2,1.1-3.8.3-5.1.3a9,9,0,0,1-1.8-.2c0,.1,0,.1.1.2s.1.2.1.3c-.1-.1-.3-.2-.7-.1a8.89,8.89,0,0,1-2.3.5c-1.1-.2-2.4-1.1-4.2-.8a6.29,6.29,0,0,0-3.6,0h-.2c.3.5.2,1.4-.4.8-.6.7-1.1.4-1.7.8-.4-.3-.8-.8-1.3-.8l-.1-.1a2,2,0,0,1-.7.1l.1.1c-.1,0-.2,0-.2-.1a1.18,1.18,0,0,1-1.2-.9c.3.2.5.3.8.5a2.31,2.31,0,0,0-.7-.7c-.6-.1-7.6,2.4-8.3,2.9-1.3.8,3.3,1.8,2,1.7-1,0-4.9-1.6-7.5-2.8l-.4,18.4a5.31,5.31,0,0,1,2.7.6c1.6,1.1,3.1-1.3,3.9-.3.9.7,1.7-1.2,2.2-1.6.9.2.9.4,1.1.3.1.5.5-.4,1.7-.3.5.7,1.3,1.9,2.6.7a12.3,12.3,0,0,0,4.8.1c3.9,1.5,6,1.3,7,.2.1-.1.2-.2.3-.2-.1-.2-.1-.4.2-.5.5-.9,1.6,1.2,4.6,1.3,3.1-.3,4.6-.8,5.3-.6s.3,1-.1.2c-1.1.8-3-.7-1.1,1,1.3.5,2.7,0,4.3.5a11.55,11.55,0,0,1,6.3-1.5c1.3-.1,2.7,3.7,4.3,3.5a21.27,21.27,0,0,1,5.4.5c2-.2,3,3.9,4.1,2.7.9.4,2.1.8,2.6.1-4.3-.5,6.3-3,2.6,0,.9-.6,2.1-.4,3.9-.4,3.8,1.9,7-.7,10.8-.3,1.6.2,7.8,0,8.1,0,2.5,0,3.3-.2,3.1-.4a8.2,8.2,0,0,1,4.6.3,24.93,24.93,0,0,0,4.9.4c1.8,0,3.8-.1,5.9-.1,1.6-.2,3,.2,4.2.1,1.1,1.1,2.3,0,3.1.5a3.13,3.13,0,0,1,1,.5c-.2.3-.1.5.5.6.5.8.8,1.5,1.3.8,1.5-.8,1.1-1.1.3-.3l.4-.4h0a106.56,106.56,0,0,1,12.6.1c8.6.6,7.3-1.3,15.8-.7-1-.3-1.4-1.2-.7-1.7.8,1,3.8,1,4.6,0,4.4.5,19.2.3,19.9,1a2.18,2.18,0,0,0-.4-.5c.4,0,1,.7,1.8,1.2,0,0-.1.1,0,.1,0,.3.1.2.3,0h.1c3.6.6,1.1-.3.1-.4.5-1.2,1.3-3.9,2.2-3.5.7.1,1.5,1.1,2.7.4-.8.5,21.8,1.6,24.7.7,1.5,2.6,11.2,3.2,12.3,3a6.91,6.91,0,0,1,3.2.4c2,.5,18.6.6,19,1.1a7.46,7.46,0,0,1,2.9.4,11,11,0,0,0,4,.3c1.8.8,4.4-.3,7.7.7,2.8.3,4.7.4,6.2.5a4.17,4.17,0,0,1,.6-.2c.4.1.7.1,1,.2a5.7,5.7,0,0,0-1.3.1c1,.1,1.8.1,2.2.2,1,.5.6-.2-.2-.2-.2-.1-.4-.1-.6-.2,2.3.3,2.4,0,2.5-.1s.6-.6,4.6-.7c1.3.4,2.6-.4,3.6,0,1.2-.7,2.1,0,2.9.5.8,1,3.9,0,4.6,1a1.72,1.72,0,0,1,2.3.3c.7.6,1.5-.4,2.3.3a3.32,3.32,0,0,1,2.4.8c2.7-.1,2.7.5,2.8.4s.4-1.6.8-.7c.5,0,1.5-.2,3.2-.3a5.81,5.81,0,0,0,3.3.3c.7-.9,1.2,1.7,1.4,2s.4-.2,2.4-.2c1,.5,14.9-.2,16.5-.8.7.1,1.5,1.5,2.7.4s2.3,0,3.9.2c.7.4,1.7-1,2.5-.1.8.6,1.9-.1,2.9.6,1.7.6,3.8-.5,5.9.5,1.2-.4,2.4-.8,3.5,0,3.1,2.2,12.6.2,18.3.4a9,9,0,0,1,1.8.2c0-.1,0-.1-.1-.2s-.1-.2-.1-.3c.1.1.3.2.7.1a8.87,8.87,0,0,1,2.4-.5c1.1.2,2.4,1.1,4.2.8a6.29,6.29,0,0,0,3.6,0h.2c-.3-.5-.2-1.4.4-.8.6-.7,1.1-.4,1.7-.8.5.4,1,1.1,1.6.8a.64.64,0,0,1,.6,0,1.18,1.18,0,0,1,1.2.9,2.25,2.25,0,0,1,.5.5c3.4,1.6,16.4,2.5,19.8,1,1.4,1.5,3.3-.7,5-.3,1.9-1.3,3.9-1.7,5.9-.6a5.1,5.1,0,0,0,3.2,1.2,6.72,6.72,0,0,0,3.7-.9c3.5,2.2,5.6.3,6.5.1.8,1.1,1,.3,1.1.3.1-.2.3-.7,1.3.1,2.2,1.8,18,3.4,21.7,3.5l5.9.3c1.6.1,6.2-3.6,6.7-2.6.6,1.2,1.4,0,2.1.9.7.7,1.7-.3,2.6-.4,1-1.3,1.9.3,2.9.5,1,1.2,2.2,0,3.4.6a15.43,15.43,0,0,0,3,1.2c.9,0,1.4,1.6,2.1-.2,1,1.1,1.8-1.4,2,0,.6-.5.1.3,1-.7.5-1.7,1.3-2.4,2.4-.6.6,0,2.3,1.4,3.2,1.8,1-.6,2.1.2,3.4.3,2.1-1,8.5-1.4,9.7-1.6,1.1.9,1.9-.3,2.4-.1a.37.37,0,0,0,.3-.1c-.1.1-.1.3-.2.5s0,.3.6.5a17.1,17.1,0,0,0,4.2.6c.9,1.4,1.9.8,2.8.2.8.1,10.8.9,11.6-.2a9,9,0,0,1,3.7.1h.1l.4-14C1824.4,506.5,1823.4,509.1,1823.1,507.3Zm-345.5-2.1c.1-1.1.1-.7.3-.3C1477.8,504.9,1477.7,504.9,1477.6,505.2Zm256.4-2.3c-.9,1-.6.1,0,0Z" transform="translate(322.9 -45)"/><g class="cls-43"><text class="cls-55" transform="translate(1682.1 553.05)">And then, </text><text class="cls-55" transform="translate(1682.1 608.25)">4783274 messa<tspan class="cls-56" x="265.49" y="0">g</tspan><tspan x="284.02" y="0">es late</tspan><tspan class="cls-57" x="385.5" y="0">r</tspan><tspan x="398.61" y="0">...</tspan></text></g></g><g id="tape4_1" class="cls-58"><path class="cls-59" d="M1691.4,373.6c-8.9,10.7-76.4,45.8-81.9,50.4-11.7,9.9-.5-1.1-20.2,15.8-8.8,7.6-8.5,5.9-13.3,10.9s-14.3,29.8-14.3,29.8l-43.5,33s12.8,40.2,15.8,47.9-2.3,3.8,1.3,18.8,10.3,12.1,10.3,12.1,69.6-48.8,75.9-57.6,24.6-22.7,29-25.9c5.6-4,10.2-8,49.3-35.3,43.4-30.3,69.5-42.6,69.5-42.6l-10-8.4s-37.2-28.6-46.1-35.8C1704.5,379.6,1691.4,373.6,1691.4,373.6Z" transform="translate(322.9 -45)"/><path class="cls-60" d="M1568.9,463.5h0c-3.7,8.2-7.1,17-7.1,17l-1.8,1.3c24.3,51.4,13.4,83,13.4,83C1588.2,537.3,1568.9,463.5,1568.9,463.5Z" transform="translate(322.9 -45)"/><path class="cls-61" d="M1594.9,472.6c1.6,2.3,4,3.8,6.5,5.3a47.78,47.78,0,0,0,8,3.6l.5.2.4.6a116,116,0,0,1,9.6,17.6,65.1,65.1,0,0,1,3.2,9.4c.7,3.2,1.5,6.6.6,10-.8-3.2-2.6-6-4.1-8.9l-4.7-8.7c-3.1-5.8-6.2-11.6-9-17.6l.9.8a32.83,32.83,0,0,1-7.6-5.2C1597,477.7,1595.1,475.3,1594.9,472.6Z" transform="translate(322.9 -45)"/><path class="cls-62" d="M1609,424.4c-.3,7.9,3,21,2.2,26.7-.8,5.4,10.1-21.7,17.8-38.7-10.1,5.7-17.8,10.1-19.5,11.5A1.21,1.21,0,0,1,1609,424.4Z" transform="translate(322.9 -45)"/><path class="cls-61" d="M1585.8,512.8l-15.2-41.9c3.3,14.4,9.8,47,8,72Z" transform="translate(322.9 -45)"/><path class="cls-63" d="M1699.9,426.7c2,0,32.6,2.7,34.2,2.4s25.3-6.5,25.3-6.5-37.2-28.6-46.1-35.8-21.9-13.2-21.9-13.2l-6.5,32.7S1697.9,426.7,1699.9,426.7Z" transform="translate(322.9 -45)"/><g class="cls-64"><path class="cls-63" d="M1684.5,462.8c1.3-1.2,2.7-2.5,4.3-3.8h0l-29.2,20.3s-13.2,6-14.7,10.7c-.4,1.2-2.2,3-4.5,4.9l22.6-11.8C1671.6,475.1,1676.7,470.2,1684.5,462.8Z" transform="translate(322.9 -45)"/></g><path class="cls-61" d="M1671.1,404.2c-5,4.4-10.8,5.9-11.4,8.6s-11,13.5-11,13.5a107.74,107.74,0,0,0-10.3,11,46.77,46.77,0,0,1-7.3,7.8s14-12.3,18-16.3,6-4.3,9.5-9.2c2.8-4-.3-3.7,5-8.6C1666.7,408.2,1671.1,404.2,1671.1,404.2Z" transform="translate(322.9 -45)"/></g></svg>